<svg xmlns="http://www.w3.org/2000/svg" version="1.1" xmlns:xlink="http://www.w3.org/1999/xlink" xmlns:svgjs="http://svgjs.com/svgjs" width="154" height="154"><svg width="154" height="154" viewBox="0 0 154 154" fill="none" xmlns="http://www.w3.org/2000/svg">
<path d="M28.5159 32.2598L85.2733 11.6018C99.9604 6.25615 116.2 13.8289 121.546 28.5159L142.204 85.2734C147.549 99.9604 139.977 116.2 125.29 121.546L68.5322 142.204C53.8452 147.55 37.6054 139.977 32.2598 125.29L11.6017 68.5323C6.25608 53.8452 13.8288 37.6055 28.5159 32.2598Z" fill="black" stroke="#4B5563" stroke-width="3"></path>
<path d="M38.1431 86.4731C36.8631 86.4731 35.6711 86.2411 34.5671 85.7771C33.4959 85.3245 32.5251 84.6637 31.7111 83.8331C30.888 82.9903 30.236 81.9959 29.7911 80.9051C29.3431 79.7851 29.1191 78.5611 29.1191 77.2331C29.1191 75.9051 29.3431 74.6811 29.7911 73.5611C30.2137 72.4644 30.8593 71.4673 31.6871 70.6331C32.4979 69.8046 33.4699 69.1512 34.5431 68.7131C35.6471 68.2491 36.8471 68.0171 38.1431 68.0171C39.4391 68.0171 40.5991 68.2331 41.6231 68.6651C42.6631 69.0971 43.5431 69.6731 44.2631 70.3931C44.9831 71.1131 45.4951 71.9131 45.7991 72.7931L42.5111 74.3771C42.2092 73.5158 41.6473 72.7694 40.9031 72.2411C40.1511 71.6651 39.2311 71.3771 38.1431 71.3771C37.0871 71.3771 36.1591 71.6251 35.3591 72.1211C34.5591 72.6171 33.9351 73.3051 33.4871 74.1851C33.0551 75.0491 32.8391 76.0651 32.8391 77.2331C32.8391 78.4011 33.0551 79.4251 33.4871 80.3051C33.9351 81.1851 34.5591 81.8731 35.3591 82.3691C36.1591 82.8651 37.0871 83.1131 38.1431 83.1131C39.2311 83.1131 40.1511 82.8331 40.9031 82.2731C41.6711 81.6971 42.2071 80.9771 42.5111 80.1131L45.7991 81.6971C45.4951 82.5771 44.9831 83.3771 44.2631 84.0971C43.5431 84.8171 42.6631 85.3931 41.6231 85.8251C40.5991 86.2571 39.4391 86.4731 38.1431 86.4731ZM57.1381 86.4731C55.7941 86.4731 54.5461 86.2411 53.3941 85.7771C52.2698 85.3309 51.2428 84.6707 50.3701 83.8331C49.5228 82.9861 48.8465 81.9838 48.3781 80.8811C47.8981 79.7611 47.6581 78.5451 47.6581 77.2331C47.6581 75.9211 47.8901 74.7051 48.3541 73.5851C48.8189 72.4875 49.4959 71.4924 50.3461 70.6571C51.2188 69.8195 52.2458 69.1593 53.3701 68.7131C54.5221 68.2491 55.7781 68.0171 57.1381 68.0171C58.4981 68.0171 59.7541 68.2491 60.9061 68.7131C62.0252 69.1557 63.045 69.8165 63.9061 70.6571C64.7666 71.4839 65.4451 72.4811 65.8981 73.5851C66.3781 74.7051 66.6181 75.9211 66.6181 77.2331C66.6181 78.5451 66.3781 79.7611 65.8981 80.8811C65.4286 81.9891 64.7432 82.9925 63.8821 83.8331C63.0209 84.6737 62.0012 85.3345 60.8821 85.7771C59.7301 86.2411 58.4821 86.4731 57.1381 86.4731ZM57.1381 83.1131C57.9541 83.1131 58.7061 82.9691 59.3941 82.6811C60.0817 82.4038 60.7091 81.9963 61.2421 81.4811C61.7739 80.9474 62.1905 80.3102 62.4661 79.6091C62.7541 78.8891 62.8981 78.0971 62.8981 77.2331C62.8981 76.3691 62.7541 75.5851 62.4661 74.8811C62.1905 74.1799 61.7739 73.5428 61.2421 73.0091C60.7176 72.4833 60.0878 72.0744 59.3941 71.8091C58.6786 71.5157 57.9115 71.3688 57.1381 71.3771C56.3221 71.3771 55.5621 71.5211 54.8581 71.8091C54.1737 72.0787 53.5527 72.4873 53.0341 73.0091C52.5024 73.5428 52.0858 74.1799 51.8101 74.8811C51.5221 75.5851 51.3781 76.3691 51.3781 77.2331C51.3781 78.0971 51.5221 78.8891 51.8101 79.6091C52.0981 80.3291 52.5061 80.9531 53.0341 81.4811C53.5611 81.9924 54.18 82.3996 54.8581 82.6811C55.5825 82.973 56.3572 83.1198 57.1381 83.1131ZM69.2561 86.1851V68.3051H75.0881C77.0241 68.3051 78.7041 68.6891 80.1281 69.4571C81.5521 70.2251 82.6561 71.2811 83.4401 72.6251C84.2241 73.9691 84.6161 75.5051 84.6161 77.2331C84.6161 78.9611 84.2241 80.5051 83.4401 81.8651C82.6561 83.2091 81.5521 84.2651 80.1281 85.0331C78.7041 85.8011 77.0241 86.1851 75.0881 86.1851H69.2561ZM72.9761 82.9451H75.1841C76.3521 82.9451 77.3601 82.7131 78.2081 82.2491C79.04 81.7855 79.7226 81.0945 80.1761 80.2571C80.6561 79.3931 80.8961 78.3851 80.8961 77.2331C80.8961 76.0651 80.6561 75.0571 80.1761 74.2091C79.7262 73.3751 79.0421 72.691 78.2081 72.2411C77.3601 71.7771 76.3521 71.5451 75.1841 71.5451H72.9761V82.9451ZM86.9991 86.1851V68.3051H99.0231V71.5451H90.7191V75.6011H98.5431V78.8411H90.7191V82.9451H99.0231V86.1851H86.9991Z" fill="white"></path>
<path d="M120.343 93.545L110.823 80.225L100.623 93.705H99.9431L108.903 77.505L98.7031 63.185L105.343 61.105L112.023 71.825L117.463 61.985H124.623L114.343 75.585L125.343 93.185L120.343 93.545Z" fill="#EF4444"></path>
</svg><style>@media (prefers-color-scheme: light) { :root { filter: contrast(1) brightness(0.7); } }
</style></svg>